<svg width="20" height="20" viewBox="0 0 20 20" fill="none" xmlns="http://www.w3.org/2000/svg">
<mask id="path-1-outside-1_9005_2541" maskUnits="userSpaceOnUse" x="-1" y="-1" width="22" height="24" fill="black">
<rect fill="white" x="-1" y="-1" width="22" height="24"/>
<path d="M16 6.01562V4H4V6.01562H16ZM12.0156 12.0156V10H4V12.0156H12.0156ZM4 7V9.01562H16V7H4ZM18.0156 0.015625C18.5469 0.015625 19 0.21875 19.375 0.625C19.7812 1 19.9844 1.45313 19.9844 1.98438V13.9844C19.9844 14.5156 19.7812 14.9844 19.375 15.3906C19 15.7969 18.5469 16 18.0156 16H4L0.015625 19.9844V1.98438C0.015625 1.45313 0.203125 1 0.578125 0.625C0.984375 0.21875 1.45312 0.015625 1.98438 0.015625H18.0156Z"/>
</mask>
<path d="M16 6.01562V4H4V6.01562H16ZM12.0156 12.0156V10H4V12.0156H12.0156ZM4 7V9.01562H16V7H4ZM18.0156 0.015625C18.5469 0.015625 19 0.21875 19.375 0.625C19.7812 1 19.9844 1.45313 19.9844 1.98438V13.9844C19.9844 14.5156 19.7812 14.9844 19.375 15.3906C19 15.7969 18.5469 16 18.0156 16H4L0.015625 19.9844V1.98438C0.015625 1.45313 0.203125 1 0.578125 0.625C0.984375 0.21875 1.45312 0.015625 1.98438 0.015625H18.0156Z" fill="#888888"/>
<path d="M16 6.01562V7.01562H17V6.01562H16ZM16 4H17V3H16V4ZM4 4V3H3V4H4ZM4 6.01562H3V7.01562H4V6.01562ZM12.0156 12.0156V13.0156H13.0156V12.0156H12.0156ZM12.0156 10H13.0156V9H12.0156V10ZM4 10V9H3V10H4ZM4 12.0156H3V13.0156H4V12.0156ZM4 7V6H3V7H4ZM4 9.01562H3V10.0156H4V9.01562ZM16 9.01562V10.0156H17V9.01562H16ZM16 7H17V6H16V7ZM19.375 0.625L18.6402 1.30328L18.6673 1.33267L18.6967 1.3598L19.375 0.625ZM19.375 15.3906L18.6679 14.6835L18.6538 14.6977L18.6402 14.7123L19.375 15.3906ZM4 16V15H3.58579L3.29289 15.2929L4 16ZM0.015625 19.9844H-0.984375V22.3986L0.722732 20.6915L0.015625 19.9844ZM17 6.01562V4H15V6.01562H17ZM16 3H4V5H16V3ZM3 4V6.01562H5V4H3ZM4 7.01562H16V5.01562H4V7.01562ZM13.0156 12.0156V10H11.0156V12.0156H13.0156ZM12.0156 9H4V11H12.0156V9ZM3 10V12.0156H5V10H3ZM4 13.0156H12.0156V11.0156H4V13.0156ZM3 7V9.01562H5V7H3ZM4 10.0156H16V8.01562H4V10.0156ZM17 9.01562V7H15V9.01562H17ZM16 6H4V8H16V6ZM18.0156 1.01562C18.2552 1.01562 18.4458 1.09268 18.6402 1.30328L20.1098 -0.0532801C19.5542 -0.655181 18.8386 -0.984375 18.0156 -0.984375V1.01562ZM18.6967 1.3598C18.9073 1.5542 18.9844 1.7448 18.9844 1.98438H20.9844C20.9844 1.16145 20.6552 0.445798 20.0533 -0.109803L18.6967 1.3598ZM18.9844 1.98438V13.9844H20.9844V1.98438H18.9844ZM18.9844 13.9844C18.9844 14.2275 18.9035 14.4479 18.6679 14.6835L20.0821 16.0977C20.659 15.5208 20.9844 14.8038 20.9844 13.9844H18.9844ZM18.6402 14.7123C18.4458 14.9229 18.2552 15 18.0156 15V17C18.8386 17 19.5542 16.6708 20.1098 16.0689L18.6402 14.7123ZM18.0156 15H4V17H18.0156V15ZM3.29289 15.2929L-0.691482 19.2773L0.722732 20.6915L4.70711 16.7071L3.29289 15.2929ZM1.01562 19.9844V1.98438H-0.984375V19.9844H1.01562ZM1.01562 1.98438C1.01562 1.71782 1.09813 1.5192 1.28523 1.33211L-0.128982 -0.0821068C-0.691884 0.480796 -0.984375 1.18843 -0.984375 1.98438H1.01562ZM1.28523 1.33211C1.52081 1.09653 1.74128 1.01562 1.98438 1.01562V-0.984375C1.16497 -0.984375 0.447941 -0.659029 -0.128982 -0.0821068L1.28523 1.33211ZM1.98438 1.01562H18.0156V-0.984375H1.98438V1.01562Z" fill="black" mask="url(#path-1-outside-1_9005_2541)"/>
</svg>
